<?xml version="1.0" encoding="UTF-8"?>
<!DOCTYPE svg PUBLIC "-//W3C//DTD SVG 1.1//EN" "http://www.w3.org/Graphics/SVG/1.1/DTD/svg11.dtd">
<!-- Creator: CorelDRAW X8 -->
<svg xmlns="http://www.w3.org/2000/svg" xml:space="preserve" width="157.34mm" height="157.34mm" version="1.1" style="shape-rendering:geometricPrecision; text-rendering:geometricPrecision; image-rendering:optimizeQuality; fill-rule:evenodd; clip-rule:evenodd"
viewBox="0 0 13332 13332"
 xmlns:xlink="http://www.w3.org/1999/xlink">
 <defs>
  <style type="text/css">
   <![CDATA[
    .fil4 {fill:none}
    .fil3 {fill:#FEFEFE}
    .fil2 {fill:#898989}
    .fil0 {fill:#FDD114}
    .fil1 {fill:#898989;fill-rule:nonzero}
   ]]>
  </style>
 </defs>
 <g id="__x0023_Layer_x0020_1">
  <metadata id="CorelCorpID_0Corel-Layer"/>
  <g id="_1422307661648">
   <g>
    <path class="fil0" d="M1503 1961l8989 0c427,0 745,-13 1170,70l406 -70 188 -115 137 115 0 9669 -10890 0 0 -9669z"/>
    <path class="fil1" d="M11219 786l-9669 0c-121,0 -235,61 -324,154 -99,103 -165,242 -176,381l0 0c-1,10 -1,23 -1,38 0,148 53,297 139,411 82,108 193,183 315,191 5,0 13,0 22,0l152 0 0 184 0 9322 10581 0 0 -9595c-129,105 -295,168 -475,168 -208,0 -396,-84 -533,-221 -136,-136 -221,-325 -221,-533 0,-192 72,-367 190,-500zm1039 657l0 -182c0,-128 -54,-246 -141,-333 -87,-87 -206,-142 -334,-142 -138,0 -263,56 -353,147 -90,90 -146,215 -146,353 0,138 56,263 146,354 90,90 215,146 353,146 138,0 263,-56 354,-146 54,-55 96,-122 121,-197zm59 -690c136,136 221,325 221,533 0,67 -9,132 -25,194l0 10242 -11090 0 0 -9515c-174,-31 -325,-138 -436,-284 -120,-157 -193,-361 -193,-564 0,-16 1,-35 2,-56l0 -1c16,-198 108,-394 247,-538 134,-140 312,-232 507,-232l10233 0c209,0 397,84 534,221zm-10767 11141l10963 0 0 906 -11090 0 0 -906 127 0zm10708 254l-10581 0 0 398 10581 0 0 -398z"/>
   </g>
   <g>
    <ellipse class="fil2" cx="6666" cy="6666" rx="3510" ry="3503"/>
    <path class="fil3" d="M6666 3163c1938,0 3510,1569 3510,3503 0,987 -410,1879 -1068,2515 -102,7 -205,11 -309,11 -245,0 -486,-20 -720,-58 8,-38 13,-77 13,-118 0,-298 -242,-539 -539,-539 -234,0 -433,149 -508,358 -1038,-444 -1875,-1270 -2337,-2301 144,-16 255,-137 255,-285 0,-158 -128,-286 -286,-286 -61,0 -117,19 -163,51 -129,-419 -198,-864 -198,-1325 0,-227 17,-450 49,-668 616,-534 1421,-858 2301,-858z"/>
    <path class="fil0" d="M5946 7212c63,0 114,51 114,114 0,62 -51,113 -114,113 -62,0 -113,-51 -113,-113 0,-63 51,-114 113,-114zm1607 1314c270,0 490,219 490,490 0,271 -220,490 -490,490 -271,0 -490,-219 -490,-490 0,-271 219,-490 490,-490zm2036 -1713c162,0 293,132 293,294 0,162 -131,293 -293,293 -162,0 -293,-131 -293,-293 0,-162 131,-294 293,-294zm-3337 -3394c109,0 197,88 197,197 0,109 -88,197 -197,197 -109,0 -198,-88 -198,-197 0,-109 89,-197 198,-197zm1836 1504c189,0 342,153 342,342 0,188 -153,341 -342,341 -188,0 -341,-153 -341,-341 0,-189 153,-342 341,-342zm-1098 361c79,0 143,64 143,143 0,79 -64,144 -143,144 -79,0 -143,-65 -143,-144 0,-79 64,-143 143,-143zm592 984c264,0 479,214 479,479 0,265 -215,480 -479,480 -265,0 -480,-215 -480,-480 0,-265 215,-479 480,-479zm-2905 -256c131,0 238,106 238,237 0,131 -107,237 -238,237 -131,0 -237,-106 -237,-237 0,-131 106,-237 237,-237zm916 -1970c379,0 686,308 686,687 0,379 -307,687 -686,687 -379,0 -687,-308 -687,-687 0,-379 308,-687 687,-687z"/>
   </g>
  </g>
  <rect class="fil4" width="13332" height="13332"/>
 </g>
</svg>
