<?xml version="1.0" encoding="UTF-8"?>
<!DOCTYPE svg PUBLIC "-//W3C//DTD SVG 1.1//EN" "http://www.w3.org/Graphics/SVG/1.1/DTD/svg11.dtd">
<!-- Creator: CorelDRAW X8 -->
<svg xmlns="http://www.w3.org/2000/svg" xml:space="preserve" width="469.8mm" height="208.2mm" version="1.1" style="shape-rendering:geometricPrecision; text-rendering:geometricPrecision; image-rendering:optimizeQuality; fill-rule:evenodd; clip-rule:evenodd"
viewBox="0 0 15617 6921"
 xmlns:xlink="http://www.w3.org/1999/xlink">
 <defs>
  <style type="text/css">
   <![CDATA[
    .fil3 {fill:none}
    .fil2 {fill:#898989;fill-rule:nonzero}
    .fil1 {fill:#2B2A29;fill-rule:nonzero}
    .fil0 {fill:#FDD114;fill-rule:nonzero}
   ]]>
  </style>
 </defs>
 <g id="Layer_x0020_1">
  <metadata id="CorelCorpID_0Corel-Layer"/>
  <g id="_2453086437520">
   <path class="fil0" d="M5323 3792c0,47 -2,93 -5,140l-4406 0c-3,-47 -5,-93 -5,-140 0,-73 4,-145 11,-215l4394 0c7,70 11,142 11,215zm-11 217c-12,121 -33,240 -64,355l-4266 0c-31,-115 -52,-234 -64,-355l4394 0zm-86 432c-38,123 -86,242 -144,355l-3934 0c-58,-113 -106,-232 -144,-355l4222 0zm-185 432c-72,126 -155,245 -249,355l-3354 0c-94,-110 -177,-229 -248,-355l3851 0zm-318 432c-128,135 -272,255 -431,355l-2354 0c-159,-100 -303,-220 -431,-355l3216 0zm-562 431c-311,168 -667,264 -1046,264 -378,0 -735,-96 -1046,-264l2092 0zm-3234 -2236c16,-122 42,-241 77,-355l4222 0c35,114 61,233 78,355l-4377 0zm102 -432c43,-124 96,-243 160,-355l3852 0c64,112 117,231 160,355l-4172 0zm205 -432c78,-128 170,-247 272,-355l3218 0c102,108 194,227 272,355l-3762 0zm348 -432c144,-139 307,-259 484,-355l2098 0c178,96 340,216 485,355l-3067 0zm641 -432c273,-121 575,-188 892,-188 317,0 619,67 892,188l-1784 0z"/>
   <path class="fil1" d="M6391 1854c55,-7 146,-14 304,-14 347,0 580,77 580,267 0,158 -213,277 -572,277l-312 0 0 -530zm-344 1468c115,10 296,20 533,20 434,0 734,-49 916,-153 138,-81 229,-187 229,-328 0,-243 -296,-372 -549,-409l0 -7c277,-61 450,-199 450,-360 0,-129 -87,-226 -225,-289 -162,-83 -383,-119 -726,-119 -237,0 -478,14 -628,36l0 1609zm344 -780l284 0c375,0 687,95 687,316 0,238 -328,319 -683,319 -122,0 -217,-3 -288,-10l0 -625zm1792 -853l347 0 0 1461 1137 0 0 177 -1484 0 0 -1638zm1863 1638l347 0 0 -1638 -347 0 0 1638zm904 -257c154,60 375,107 612,107 351,0 556,-112 556,-280 0,-151 -142,-241 -501,-323 -434,-97 -703,-238 -703,-467 0,-255 344,-445 861,-445 268,0 470,39 584,80l-95 173c-83,-32 -260,-78 -501,-78 -363,0 -501,134 -501,246 0,153 161,228 529,316 450,109 675,240 675,481 0,253 -300,474 -928,474 -257,0 -537,-49 -679,-107l91 -177zm1946 0c154,60 375,107 612,107 351,0 556,-112 556,-280 0,-151 -142,-241 -501,-323 -434,-97 -703,-238 -703,-467 0,-255 344,-445 861,-445 268,0 470,39 584,80l-95 173c-83,-32 -260,-78 -501,-78 -363,0 -501,134 -501,246 0,153 162,228 529,316 440,107 665,235 674,466l0 29c-11,247 -311,460 -927,460 -256,0 -537,-49 -679,-107l91 -177zm-2499 -1954c0,113 -92,205 -205,205 -113,0 -204,-92 -204,-205 0,-113 91,-204 204,-204 113,0 205,91 205,204z"/>
   <path class="fil2" d="M6332 5037c0,-47 7,-88 17,-125 57,-222 246,-363 447,-363 316,0 484,279 484,609 0,373 -181,625 -494,625 -212,0 -386,-141 -444,-346 -6,-34 -10,-71 -10,-108l0 -292zm-295 524c0,145 -4,309 -14,420l256 0 16 -269 7 0c125,215 309,306 545,306 363,0 732,-289 732,-874 0,-491 -282,-827 -685,-827 -262,0 -451,115 -555,296l-7 0 0 -1018 -295 0 0 1966zm1912 420l296 0 0 -2386 -296 0 0 2386zm787 0l0 -1627 295 0 0 1627 -295 0zm141 -1926c-111,0 -185,-87 -185,-191 0,-105 77,-189 192,-189 114,0 188,84 188,189 0,104 -74,191 -192,191l-3 0zm645 740c0,-172 -3,-306 -13,-441l262 0 17 266 6 0c81,-152 269,-303 538,-303 225,0 575,135 575,693l0 971 -296 0 0 -938c0,-262 -97,-484 -376,-484 -192,0 -343,138 -397,303 -13,37 -20,91 -20,138l0 981 -296 0 0 -1186zm2975 504c0,47 -4,87 -14,128 -53,218 -235,352 -433,352 -316,0 -481,-272 -481,-605 0,-356 182,-625 488,-625 221,0 383,155 426,340 10,40 14,87 14,127l0 283zm0 -1704l0 968 -7 0c-70,-128 -238,-246 -491,-246 -393,0 -732,330 -729,874 0,494 306,827 699,827 266,0 461,-138 551,-319l7 0 14 282 265 0c-10,-111 -13,-275 -13,-420l0 -1966 -296 0zm746 2087c91,54 245,114 393,114 212,0 313,-104 313,-242 0,-141 -84,-218 -299,-299 -296,-107 -434,-265 -434,-460 0,-263 215,-478 561,-478 165,0 310,44 397,101l-70 212c-64,-37 -182,-94 -333,-94 -175,0 -269,101 -269,222 0,137 94,198 306,279 279,104 427,245 427,490 0,290 -226,491 -605,491 -179,0 -343,-47 -458,-114l71 -222z"/>
  </g>
  <rect class="fil3" width="15617" height="6921"/>
 </g>
</svg>
