<?xml version="1.0" encoding="UTF-8"?>
<!DOCTYPE svg PUBLIC "-//W3C//DTD SVG 1.1//EN" "http://www.w3.org/Graphics/SVG/1.1/DTD/svg11.dtd">
<!-- Creator: CorelDRAW X8 -->
<svg xmlns="http://www.w3.org/2000/svg" xml:space="preserve" width="29.011mm" height="29.0112mm" version="1.1" style="shape-rendering:geometricPrecision; text-rendering:geometricPrecision; image-rendering:optimizeQuality; fill-rule:evenodd; clip-rule:evenodd"
viewBox="0 0 2189 2189"
 xmlns:xlink="http://www.w3.org/1999/xlink">
 <defs>
  <style type="text/css">
   <![CDATA[
    .fil1 {fill:#FEFEFE}
    .fil0 {fill:#898989;fill-rule:nonzero}
   ]]>
  </style>
 </defs>
 <g id="Layer_x0020_1">
  <metadata id="CorelCorpID_0Corel-Layer"/>
  <path class="fil0" d="M1915 2189l-1641 0c-151,0 -274,-122 -274,-274l0 -1641c0,-151 123,-274 274,-274l1641 0c151,0 274,122 274,273l0 1643c0,151 -123,273 -274,273zm-90 -1429l0 669c0,8 -2,13 -6,16 -4,2 -10,-1 -16,-7l-321 -322c-7,-6 -10,-13 -10,-21 0,-8 3,-16 10,-22l321 -322c6,-6 12,-8 16,-6 4,2 6,7 6,15zm-22 921c6,7 9,12 7,16 -2,4 -8,6 -16,6l-1399 0c-8,0 -13,-2 -16,-6 -2,-4 1,-9 7,-16l443 -443c7,-6 14,-10 22,-10 8,0 15,4 22,10l200 200c6,6 14,10 22,10 8,0 15,-4 21,-10l200 -200c7,-6 14,-10 22,-10 8,0 15,4 22,10l443 443zm-1408 -1195l1399 0c8,0 14,2 16,6 2,4 -1,9 -7,16l-687 690c-6,7 -13,10 -21,10 -8,0 -16,-3 -22,-10l-687 -690c-6,-7 -9,-12 -7,-16 3,-4 8,-6 16,-6zm322 609c0,8 -3,15 -9,21l-322 322c-6,6 -11,9 -16,7 -4,-3 -6,-8 -6,-16l0 -669c0,-8 2,-13 6,-15 5,-2 10,0 16,6l322 322c6,6 9,14 9,22z"/>
 </g>
 <g id="__x0023_Layer_x0020_1">
  <metadata id="CorelCorpID_1Corel-Layer"/>
  <path class="fil1" d="M1825 760l0 669c0,8 -2,13 -6,16 -4,2 -10,-1 -16,-7l-321 -322c-7,-6 -10,-13 -10,-21 0,-8 3,-16 10,-22l321 -322c6,-6 12,-8 16,-6 4,2 6,7 6,15zm-22 921c6,7 9,12 7,16 -2,4 -8,6 -16,6l-1399 0c-8,0 -13,-2 -16,-6 -2,-4 1,-9 7,-16l443 -443c7,-6 14,-10 22,-10 8,0 15,4 22,10l200 200c6,6 14,10 22,10 8,0 15,-4 21,-10l200 -200c7,-6 14,-10 22,-10 8,0 15,4 22,10l443 443zm-1408 -1195l1399 0c8,0 14,2 16,6 2,4 -1,9 -7,16l-687 690c-6,7 -13,10 -21,10 -8,0 -16,-3 -22,-10l-687 -690c-6,-7 -9,-12 -7,-16 3,-4 8,-6 16,-6zm322 609c0,8 -3,15 -9,21l-322 322c-6,6 -11,9 -16,7 -4,-3 -6,-8 -6,-16l0 -669c0,-8 2,-13 6,-15 5,-2 10,0 16,6l322 322c6,6 9,14 9,22z"/>
 </g>
</svg>
