<?xml version="1.0" encoding="UTF-8"?>
<!DOCTYPE svg PUBLIC "-//W3C//DTD SVG 1.1//EN" "http://www.w3.org/Graphics/SVG/1.1/DTD/svg11.dtd">
<!-- Creator: CorelDRAW X8 -->
<svg xmlns="http://www.w3.org/2000/svg" xml:space="preserve" width="29.0084mm" height="28.9869mm" version="1.1" style="shape-rendering:geometricPrecision; text-rendering:geometricPrecision; image-rendering:optimizeQuality; fill-rule:evenodd; clip-rule:evenodd"
viewBox="0 0 745 745"
 xmlns:xlink="http://www.w3.org/1999/xlink">
 <defs>
  <style type="text/css">
   <![CDATA[
    .fil0 {fill:#898989}
    .fil1 {fill:#FEFEFE;fill-rule:nonzero}
   ]]>
  </style>
 </defs>
 <g id="Layer_x0020_1">
  <metadata id="CorelCorpID_0Corel-Layer"/>
  <ellipse class="fil0" cx="373" cy="372" rx="373" ry="372"/>
  <path class="fil1" d="M314 740l0 -260 -94 0 0 -107 94 0 0 -82c0,-94 56,-145 141,-145 41,0 84,7 84,7l0 92 -47 0c-47,0 -61,28 -61,58l0 70 103 0 -16 107 -87 0 0 260c-19,3 -39,5 -58,5 -20,0 -40,-2 -59,-5z"/>
 </g>
</svg>
