<?xml version="1.0" encoding="UTF-8"?>
<!DOCTYPE svg PUBLIC "-//W3C//DTD SVG 1.1//EN" "http://www.w3.org/Graphics/SVG/1.1/DTD/svg11.dtd">
<!-- Creator: CorelDRAW X8 -->
<svg xmlns="http://www.w3.org/2000/svg" xml:space="preserve" width="157.34mm" height="157.34mm" version="1.1" style="shape-rendering:geometricPrecision; text-rendering:geometricPrecision; image-rendering:optimizeQuality; fill-rule:evenodd; clip-rule:evenodd"
viewBox="0 0 2511 2511"
 xmlns:xlink="http://www.w3.org/1999/xlink">
 <defs>
  <style type="text/css">
   <![CDATA[
    .fil2 {fill:none}
    .fil0 {fill:#FDD114}
    .fil1 {fill:#898989;fill-rule:nonzero}
   ]]>
  </style>
 </defs>
 <g id="__x0023_Layer_x0020_1">
  <metadata id="CorelCorpID_0Corel-Layer"/>
  <g id="_1422396371712">
   <polygon id="venetian_icon_outline.svg" class="fil0" points="188,2105 635,2384 2326,1832 1926,1566 "/>
   <path class="fil1" d="M247 2113l392 243 1631 -532 -348 -230 -1675 519zm375 292l-494 -307 1802 -559 453 300 -1751 572 -10 -6z"/>
   <g>
    <polygon id="venetian_icon_outline.svg_0" class="fil0" points="188,1746 635,2024 2326,1472 1926,1207 "/>
    <path class="fil1" d="M247 1753l392 244 1631 -533 -348 -230 -1675 519zm375 292l-494 -307 1802 -559 453 300 -1751 572 -10 -6z"/>
   </g>
   <g>
    <polygon id="venetian_icon_outline.svg_1" class="fil0" points="188,1386 635,1664 2326,1112 1926,847 "/>
    <path class="fil1" d="M247 1393l392 244 1631 -533 -348 -230 -1675 519zm375 292l-494 -307 1802 -558 453 300 -1751 571 -10 -6z"/>
   </g>
   <g>
    <polygon id="venetian_icon_outline.svg_2" class="fil0" points="188,1026 635,1304 2326,752 1926,487 "/>
    <path class="fil1" d="M247 1034l392 243 1631 -532 -348 -231 -1675 520zm375 291l-494 -307 1802 -558 453 300 -1751 571 -10 -6z"/>
    <g>
     <polygon id="venetian_icon_outline.svg_3" class="fil0" points="188,666 635,944 2326,392 1926,127 "/>
     <path class="fil1" d="M247 674l392 243 1631 -532 -348 -230 -1675 519zm375 292l-494 -307 1802 -559 453 300 -1751 572 -10 -6z"/>
    </g>
   </g>
  </g>
  <rect class="fil2" width="2511" height="2511"/>
 </g>
</svg>
