<?xml version="1.0" encoding="UTF-8"?>
<!DOCTYPE svg PUBLIC "-//W3C//DTD SVG 1.1//EN" "http://www.w3.org/Graphics/SVG/1.1/DTD/svg11.dtd">
<!-- Creator: CorelDRAW X8 -->
<svg xmlns="http://www.w3.org/2000/svg" xml:space="preserve" width="157.34mm" height="157.34mm" version="1.1" style="shape-rendering:geometricPrecision; text-rendering:geometricPrecision; image-rendering:optimizeQuality; fill-rule:evenodd; clip-rule:evenodd"
viewBox="0 0 1460 1460"
 xmlns:xlink="http://www.w3.org/1999/xlink">
 <defs>
  <style type="text/css">
   <![CDATA[
    .fil2 {fill:none}
    .fil0 {fill:#FDD114}
    .fil1 {fill:#898989;fill-rule:nonzero}
   ]]>
  </style>
 </defs>
 <g id="__x0023_Layer_x0020_1">
  <metadata id="CorelCorpID_0Corel-Layer"/>
  <g id="_1422280297232">
   <path class="fil0" d="M336 664l1077 -395 -269 -195 -1097 370 289 220zm0 361l1077 -393 -269 -197 -1097 372 289 218zm0 361l1077 -393 -269 -197 -1097 372 289 218z"/>
   <path class="fil1" d="M339 648l1044 -383 -242 -175 -1064 358 262 200zm1079 -366l-1084 398c-106,-80 -211,-161 -317,-241 376,-127 753,-254 1129,-381 99,72 198,143 297,215l-25 9zm-1079 727l1044 -381 -242 -177 -1064 361 262 197zm1079 -363l-1084 395 -317 -239c376,-127 753,-255 1129,-383 99,73 198,145 297,218l-25 9zm-1079 724l1044 -381 -242 -177 -1064 361 262 197zm1079 -363l-1084 395 -317 -239c376,-128 753,-255 1129,-383 99,72 198,145 297,218l-25 9z"/>
   <path class="fil1" d="M915 94l0 60 -29 0 0 -60 29 0zm0 361l0 63 -29 0 0 -63 29 0zm0 361l0 63 -29 0 0 -63 29 0z"/>
   <path class="fil1" d="M1204 217l0 919 -29 0 0 -74c-120,-145 -276,-198 -276,-198l9 -27c0,0 145,49 267,182l0 -310c-120,-143 -285,-200 -285,-200l9 -27c1,0 154,53 276,184l0 -324c-123,-143 -285,-203 -285,-203l10 -27c0,0 151,56 275,188l0 -83 29 0z"/>
   <path class="fil1" d="M368 279l0 60 -29 0 0 -60 29 0zm0 361l0 63 -29 0 0 -44 29 -19zm0 361l0 63 -29 0 0 -44 29 -19z"/>
   <path class="fil1" d="M657 402l0 919 -29 0 0 -74c-120,-145 -276,-198 -276,-198l9 -27c0,0 145,49 267,182l0 -310c-120,-143 -285,-200 -285,-201l9 -26c1,0 154,53 276,184l0 -324c-123,-143 -285,-203 -285,-203l10 -27c0,0 151,56 275,188l0 -83 29 0z"/>
  </g>
  <rect class="fil2" width="1460" height="1460"/>
 </g>
</svg>
