<?xml version="1.0" encoding="UTF-8"?>
<!DOCTYPE svg PUBLIC "-//W3C//DTD SVG 1.1//EN" "http://www.w3.org/Graphics/SVG/1.1/DTD/svg11.dtd">
<!-- Creator: CorelDRAW X8 -->
<svg xmlns="http://www.w3.org/2000/svg" xml:space="preserve" width="29.0112mm" height="29.008mm" version="1.1" style="shape-rendering:geometricPrecision; text-rendering:geometricPrecision; image-rendering:optimizeQuality; fill-rule:evenodd; clip-rule:evenodd"
viewBox="0 0 2804 2804"
 xmlns:xlink="http://www.w3.org/1999/xlink">
 <defs>
  <style type="text/css">
   <![CDATA[
    .fil0 {fill:#898989;fill-rule:nonzero}
   ]]>
  </style>
 </defs>
 <g id="Layer_x0020_1">
  <metadata id="CorelCorpID_0Corel-Layer"/>
  <path class="fil0" d="M1164 877c-23,1 -31,9 -50,39 -129,196 -491,751 -549,843 -48,77 -66,139 -51,200 13,57 57,97 127,112 17,2 34,-4 46,-18 94,-116 619,-821 718,-953 13,-19 10,-26 2,-41 -18,-37 -86,-113 -141,-148 -36,-24 -72,-35 -96,-35 -2,0 -5,0 -6,1zm1640 1672c0,140 -114,255 -254,255l-2295 0c-140,0 -255,-115 -255,-255l0 -2294c0,-136 108,-248 242,-255l530 0c10,223 13,336 -23,441 -64,185 -269,380 -410,530 -49,52 150,191 360,26 76,-60 197,-178 295,-254 44,-35 101,-52 160,-43 81,12 136,49 193,117 57,69 111,162 186,283 139,228 296,487 464,754 86,136 200,193 356,189 15,-1 17,-9 12,-19 -109,-235 -640,-1331 -755,-1583 -60,-131 -122,-293 -177,-441l1129 0c135,7 242,119 242,255l0 2294zm-2551 -262l0 8c1,136 114,253 250,253l1792 0c140,0 254,-118 255,-254l0 -7 -2297 0z"/>
 </g>
</svg>
