<?xml version="1.0" encoding="UTF-8"?>
<!DOCTYPE svg PUBLIC "-//W3C//DTD SVG 1.1//EN" "http://www.w3.org/Graphics/SVG/1.1/DTD/svg11.dtd">
<!-- Creator: CorelDRAW X8 -->
<svg xmlns="http://www.w3.org/2000/svg" xml:space="preserve" width="29.0112mm" height="29.008mm" version="1.1" style="shape-rendering:geometricPrecision; text-rendering:geometricPrecision; image-rendering:optimizeQuality; fill-rule:evenodd; clip-rule:evenodd"
viewBox="0 0 2804 2804"
 xmlns:xlink="http://www.w3.org/1999/xlink">
 <defs>
  <style type="text/css">
   <![CDATA[
    .fil0 {fill:none;fill-rule:nonzero}
    .fil2 {fill:#FEFEFE}
    .fil1 {fill:#898989;fill-rule:nonzero}
   ]]>
  </style>
 </defs>
 <g id="Layer_x0020_1">
  <metadata id="CorelCorpID_0Corel-Layer"/>
  <path class="fil0" d="M772 0c10,223 13,336 -23,441 -64,185 -269,380 -410,530 -49,52 150,191 360,26 76,-60 197,-178 295,-254 44,-35 101,-52 160,-43 81,12 136,49 193,117 57,69 111,162 186,283 139,228 296,487 464,754 86,136 200,193 356,189 15,-1 17,-9 12,-19 -109,-235 -640,-1331 -755,-1583 -60,-131 -122,-293 -177,-441l-661 0"/>
  <path class="fil1" d="M2804 2549c0,140 -114,255 -254,255l-2295 0c-140,0 -255,-115 -255,-255l0 -2294c0,-136 108,-248 242,-255l530 0c10,223 13,336 -23,441 -64,185 -269,380 -410,530 -49,52 150,191 360,26 76,-60 197,-178 295,-254 44,-35 101,-52 160,-43 81,12 136,49 193,117 57,69 111,162 186,283 139,228 296,487 464,754 86,136 200,193 356,189 15,-1 17,-9 12,-19 -109,-235 -640,-1331 -755,-1583 -60,-131 -122,-293 -177,-441l1129 0c135,7 242,119 242,255l0 2294z"/>
  <path class="fil2" d="M1405 1100c-99,132 -624,837 -718,953 -12,14 -29,20 -46,18 -70,-15 -114,-55 -127,-112 -15,-61 3,-123 51,-200 58,-92 420,-647 549,-843 19,-30 27,-38 50,-39 1,-1 4,-1 6,-1 24,0 60,11 96,35 55,35 123,111 141,148 8,15 11,22 -2,41zm-1152 1187l2297 0 0 7c-1,136 -115,254 -255,254l-1792 0c-136,0 -249,-117 -250,-253l0 -8z"/>
  <path class="fil2" d="M772 0l661 0c55,148 117,310 177,441 115,252 646,1348 755,1583 5,10 3,18 -12,19 -156,4 -270,-53 -356,-189 -168,-267 -325,-526 -464,-754 -75,-121 -129,-214 -186,-283 -57,-68 -112,-105 -193,-117 -59,-9 -116,8 -160,43 -98,76 -219,194 -295,254 -210,165 -409,26 -360,-26 141,-150 346,-345 410,-530 36,-105 33,-218 23,-441z"/>
 </g>
</svg>
