<?xml version="1.0" encoding="UTF-8"?>
<!DOCTYPE svg PUBLIC "-//W3C//DTD SVG 1.1//EN" "http://www.w3.org/Graphics/SVG/1.1/DTD/svg11.dtd">
<!-- Creator: CorelDRAW X8 -->
<svg xmlns="http://www.w3.org/2000/svg" xml:space="preserve" width="157.34mm" height="157.34mm" version="1.1" style="shape-rendering:geometricPrecision; text-rendering:geometricPrecision; image-rendering:optimizeQuality; fill-rule:evenodd; clip-rule:evenodd"
viewBox="0 0 28205 28205"
 xmlns:xlink="http://www.w3.org/1999/xlink">
 <defs>
  <style type="text/css">
   <![CDATA[
    .str0 {stroke:#898989;stroke-width:35.8523}
    .str1 {stroke:#2B2A29;stroke-width:35.8523}
    .fil4 {fill:none}
    .fil2 {fill:#FEFEFE}
    .fil0 {fill:#898989}
    .fil1 {fill:#898989}
    .fil3 {fill:#FDD114;fill-rule:nonzero}
   ]]>
  </style>
 </defs>
 <g id="__x0023_Layer_x0020_1">
  <metadata id="CorelCorpID_0Corel-Layer"/>
  <g id="_1819880703024">
   <path class="fil0" d="M7292 3080l13621 0 0 16703 -13621 0 0 -16703zm-776 17484l15173 0 0 -18264 -15173 0 0 18264z"/>
   <rect class="fil1 str0" x="1628" y="1143" width="24950" height="1134"/>
   <path class="fil2 str1" d="M6611 22505c397,900 501,1832 404,2731 -482,-1293 -271,-1281 -404,-2731z"/>
   <path class="fil3" d="M3635 2300l-31 0 31 0zm10327 -33l-10358 33 886 15283 32 995c-951,2174 -1377,4595 -1476,7171 951,1847 1189,676 1783,1014 494,591 1078,270 1723,-648 936,1085 1776,856 2562,-121 -273,-2703 -903,-5201 -2226,-7301l-15 -759c6258,-2633 6599,-9409 7089,-15667z"/>
   <path class="fil2" d="M5227 8600c525,3491 703,5315 21,8742 -219,-2883 -201,-5801 -21,-8742zm1661 10093c12,65 -220,146 -187,203 1032,1816 1242,3712 1383,5575 -537,-1810 -1075,-3619 -1613,-5428 -124,94 -296,157 -543,172 -202,1377 -403,2755 -605,4133 -26,-1425 -14,-2791 -40,-4215 -308,-104 -587,-327 -761,-555 -136,-398 -145,-778 -41,-1142l1066 400c107,-759 427,-1324 534,-2083 7,760 -199,1379 -202,2131 103,19 216,21 384,-32 2076,-4533 2080,-7971 2147,-15008 791,5391 507,10516 -1836,14991 175,11 369,-19 544,-8 49,298 -37,586 -230,866zm1434 -2471c1962,-1888 3997,-5770 3677,-13507 -429,6649 -919,8840 -3677,13507zm387 -1887c1628,-4454 1716,-6251 1560,-11556 -368,4137 -788,7476 -1560,11556z"/>
   <path class="fil2 str1" d="M21594 22505c-397,900 -501,1832 -404,2731 482,-1293 271,-1281 404,-2731z"/>
   <path class="fil3" d="M24570 2300l31 0 -31 0zm-10327 -33l10358 33 -886 15283 -32 995c951,2174 1377,4595 1476,7171 -951,1847 -1189,676 -1783,1014 -494,591 -1078,270 -1722,-648 -937,1085 -1777,856 -2563,-121 273,-2703 903,-5201 2226,-7301l15 -759c-6258,-2633 -6599,-9409 -7089,-15667z"/>
   <path class="fil2" d="M23683 18578c-174,228 -453,451 -761,555 -26,1424 -14,2790 -40,4215 -202,-1378 -403,-2756 -605,-4133 -247,-15 -419,-78 -543,-172 -538,1809 -1076,3618 -1613,5428 141,-1863 351,-3759 1383,-5575 33,-57 -199,-138 -187,-203 -80,-110 -116,-603 15,-759l299 -99c-2343,-4475 -2627,-9600 -1836,-14991 67,7037 71,10475 2147,15008 168,53 281,51 384,32 -3,-752 -209,-1371 -202,-2131 107,759 427,1324 534,2083l1066 -400c44,352 30,740 -41,1142zm-705 -9978c-525,3491 -703,5315 -21,8742 219,-2883 201,-5801 21,-8742zm-3482 5735c-1628,-4454 -1716,-6251 -1560,-11556 368,4137 788,7476 1560,11556zm387 1887c-1962,-1888 -3997,-5770 -3677,-13507 429,6649 919,8840 3677,13507z"/>
  </g>
  <rect class="fil4" width="28205" height="28205"/>
 </g>
</svg>
