<?xml version="1.0" encoding="UTF-8"?>
<!DOCTYPE svg PUBLIC "-//W3C//DTD SVG 1.1//EN" "http://www.w3.org/Graphics/SVG/1.1/DTD/svg11.dtd">
<!-- Creator: CorelDRAW X8 -->
<svg xmlns="http://www.w3.org/2000/svg" xml:space="preserve" width="29.011mm" height="29.0112mm" version="1.1" style="shape-rendering:geometricPrecision; text-rendering:geometricPrecision; image-rendering:optimizeQuality; fill-rule:evenodd; clip-rule:evenodd"
viewBox="0 0 1144 1144"
 xmlns:xlink="http://www.w3.org/1999/xlink">
 <defs>
  <style type="text/css">
   <![CDATA[
    .fil1 {fill:#FEFEFE;fill-rule:nonzero}
    .fil0 {fill:#898989;fill-rule:nonzero}
   ]]>
  </style>
 </defs>
 <g id="Layer_x0020_1">
  <metadata id="CorelCorpID_0Corel-Layer"/>
  <path class="fil0" d="M1001 1144l-858 0c-79,0 -143,-64 -143,-143l0 -858c0,-79 64,-143 143,-143l858 0c79,0 143,64 143,143l0 858c0,79 -64,143 -143,143zm-746 -793l88 -88c6,-7 13,-9 22,-8 8,1 15,5 20,12l75 106c5,7 7,15 6,24 -1,9 -4,16 -11,22l-64 65c37,51 78,100 124,145 45,46 94,87 145,124l65 -64c6,-7 14,-10 23,-11 9,0 17,2 24,7l104 74c7,5 11,12 13,20 1,9 -1,16 -8,22l-88 88c-1,1 -3,1 -6,1 -2,0 -7,0 -15,-1 -9,-1 -17,-2 -26,-3 -9,-2 -21,-5 -34,-8 -14,-4 -28,-9 -42,-15 -15,-6 -31,-13 -49,-23 -19,-10 -37,-20 -56,-33 -18,-12 -38,-27 -60,-45 -22,-18 -43,-37 -65,-59 -27,-27 -51,-54 -72,-82 -22,-27 -39,-52 -52,-75 -13,-22 -23,-44 -32,-65 -9,-21 -16,-39 -19,-54 -4,-16 -6,-29 -8,-41 -2,-11 -3,-20 -3,-26l1 -9z"/>
 </g>
 <g id="__x0023_Layer_x0020_1">
  <metadata id="CorelCorpID_1Corel-Layer"/>
  <path class="fil1" d="M255 351l88 -88c6,-7 13,-9 22,-8 8,1 15,5 20,12l75 106c5,7 7,15 6,24 -1,9 -4,16 -11,22l-64 65c37,51 78,100 124,145 45,46 94,87 145,124l65 -64c6,-7 14,-10 23,-11 9,0 17,2 24,7l104 74c7,5 11,12 13,20 1,9 -1,16 -8,22l-88 88c-1,1 -3,1 -6,1 -2,0 -7,0 -15,-1 -9,-1 -17,-2 -26,-3 -9,-2 -21,-5 -34,-8 -14,-4 -28,-9 -42,-15 -15,-6 -31,-13 -49,-23 -19,-10 -37,-20 -56,-33 -18,-12 -38,-27 -60,-45 -22,-18 -43,-37 -65,-59 -27,-27 -51,-54 -72,-82 -22,-27 -39,-52 -52,-75 -13,-22 -23,-44 -32,-65 -9,-21 -16,-39 -19,-54 -4,-16 -6,-29 -8,-41 -2,-11 -3,-20 -3,-26l1 -9z"/>
 </g>
</svg>
