<?xml version="1.0" encoding="UTF-8"?>
<!DOCTYPE svg PUBLIC "-//W3C//DTD SVG 1.1//EN" "http://www.w3.org/Graphics/SVG/1.1/DTD/svg11.dtd">
<!-- Creator: CorelDRAW X8 -->
<svg xmlns="http://www.w3.org/2000/svg" xml:space="preserve" width="29.011mm" height="29.0112mm" version="1.1" style="shape-rendering:geometricPrecision; text-rendering:geometricPrecision; image-rendering:optimizeQuality; fill-rule:evenodd; clip-rule:evenodd"
viewBox="0 0 2144 2144"
 xmlns:xlink="http://www.w3.org/1999/xlink">
 <defs>
  <style type="text/css">
   <![CDATA[
    .fil0 {fill:#898989;fill-rule:nonzero}
   ]]>
  </style>
 </defs>
 <g id="Layer_x0020_1">
  <metadata id="CorelCorpID_0Corel-Layer"/>
  <path class="fil0" d="M1876 2144l-1608 0c-148,0 -268,-120 -268,-268l0 -1608c0,-148 120,-268 268,-268l1608 0c148,0 267,120 268,267l0 1610c-1,147 -120,267 -268,267zm-1053 -528c506,0 783,-419 783,-782 0,-12 -1,-24 -1,-35 53,-39 100,-88 137,-143 -49,22 -102,37 -158,44 57,-34 100,-88 121,-152 -53,31 -112,54 -175,66 -50,-53 -121,-87 -200,-87 -152,0 -275,124 -275,275 0,22 2,43 7,63 -229,-11 -431,-121 -567,-287 -23,40 -37,88 -37,138 0,95 49,180 122,229 -45,-2 -87,-14 -124,-35 0,2 0,3 0,4 0,133 95,244 220,269 -23,7 -47,10 -72,10 -18,0 -35,-2 -52,-5 35,109 137,189 257,191 -94,74 -213,118 -341,118 -23,0 -45,-2 -66,-4 122,78 266,123 421,123z"/>
 </g>
</svg>
