<?xml version="1.0" encoding="UTF-8"?>
<!DOCTYPE svg PUBLIC "-//W3C//DTD SVG 1.1//EN" "http://www.w3.org/Graphics/SVG/1.1/DTD/svg11.dtd">
<!-- Creator: CorelDRAW X8 -->
<svg xmlns="http://www.w3.org/2000/svg" xml:space="preserve" width="157.34mm" height="157.34mm" version="1.1" style="shape-rendering:geometricPrecision; text-rendering:geometricPrecision; image-rendering:optimizeQuality; fill-rule:evenodd; clip-rule:evenodd"
viewBox="0 0 10704 10704"
 xmlns:xlink="http://www.w3.org/1999/xlink">
 <defs>
  <style type="text/css">
   <![CDATA[
    .fil3 {fill:none}
    .fil0 {fill:#FDD114}
    .fil2 {fill:#FEFEFE;fill-rule:nonzero}
    .fil1 {fill:#898989;fill-rule:nonzero}
   ]]>
  </style>
 </defs>
 <g id="__x0023_Layer_x0020_1">
  <metadata id="CorelCorpID_0Corel-Layer"/>
  <g id="_1422396414464">
   <g>
    <path class="fil0" d="M1168 602l0 9675 7921 0 0 -9675 -7921 0zm0 0l0 0 0 0z"/>
   </g>
   <polygon class="fil1" points="1311,602 1311,10277 8947,10277 8947,602 9232,602 9232,10277 1026,10277 1026,602 "/>
   <path class="fil2" d="M2132 9992l0 -9390 286 0 0 9390 -286 0zm1165 0l0 -9390 286 0 0 9390 -286 0zm1107 0l0 -9390 285 0 0 9390 -285 0zm1165 0l0 -9390 285 0 0 9390 -285 0zm1106 0l0 -9390 286 0 0 9390 -286 0zm1165 0l0 -9390 286 0 0 9390 -286 0z"/>
   <polygon class="fil1" points="9666,719 9666,7106 9523,7106 9523,719 "/>
   <polygon class="fil0" points="9400,6931 9827,6931 9827,7863 9400,7863 "/>
   <polygon class="fil1" points="644,427 10060,427 10060,855 644,855 "/>
   <path class="fil1" d="M2132 9992l0 285 286 0 0 -285 -286 0zm1165 0l0 285 286 0 0 -285 -286 0zm1107 0l0 285 285 0 0 -285 -285 0zm1165 0l0 285 285 0 0 -285 -285 0zm1106 0l0 285 286 0 0 -285 -286 0zm1165 0l0 285 286 0 0 -285 -286 0z"/>
  </g>
  <rect class="fil3" width="10704" height="10704"/>
 </g>
</svg>
