<?xml version="1.0" standalone="no"?>
<!DOCTYPE svg PUBLIC "-//W3C//DTD SVG 20010904//EN"
 "http://www.w3.org/TR/2001/REC-SVG-20010904/DTD/svg10.dtd">
<svg version="1.0" xmlns="http://www.w3.org/2000/svg"
 width="544.000000pt" height="544.000000pt" viewBox="0 0 544.000000 544.000000"
 preserveAspectRatio="xMidYMid meet">
<metadata>
Created by potrace 1.11, written by Peter Selinger 2001-2013
</metadata>
<g transform="translate(0.000000,544.000000) scale(0.100000,-0.100000)"
fill="#000000" stroke="none">
<path d="M2495 5430 c-266 -23 -604 -105 -815 -199 l-45 -20 1085 0 1085 0
-85 35 c-183 75 -432 140 -655 169 -150 19 -425 27 -570 15z"/>
<path d="M1380 5088 c-167 -100 -368 -246 -485 -352 l-60 -55 1879 -1 1880 0
-35 36 c-84 88 -340 277 -490 362 l-56 32 -1299 -1 c-1298 -1 -1299 -1 -1334
-21z"/>
<path d="M684 4523 c-27 -32 -67 -80 -90 -108 -51 -62 -184 -255 -184 -267 0
-4 1040 -8 2310 -8 1271 0 2310 2 2310 5 0 25 -212 309 -293 393 l-41 42
-1981 0 -1981 0 -50 -57z"/>
<path d="M336 4028 c-27 -41 -133 -272 -160 -345 l-26 -73 2565 0 c1801 0
2565 3 2565 11 0 18 -87 224 -139 328 l-51 101 -2370 0 -2370 0 -14 -22z"/>
<path d="M105 3468 c-25 -87 -64 -268 -71 -330 l-7 -58 2692 0 2692 0 -6 48
c-10 65 -50 255 -71 330 l-17 62 -2598 0 -2598 0 -16 -52z"/>
<path d="M15 2980 c-9 -15 -19 -351 -11 -393 l7 -37 2709 0 2710 0 0 189 c0
104 -3 203 -6 220 l-6 31 -2699 0 c-1773 0 -2700 -3 -2704 -10z"/>
<path d="M18 2418 c12 -100 35 -234 53 -311 l21 -87 2626 2 2626 3 13 50 c15
57 63 327 63 356 0 19 -44 19 -2703 19 l-2704 0 5 -32z"/>
<path d="M155 1821 c30 -86 82 -212 125 -303 l13 -28 2424 0 2424 0 43 93 c44
93 109 259 121 310 l7 27 -2596 0 -2595 0 34 -99z"/>
<path d="M376 1343 c47 -83 124 -195 203 -296 l76 -97 2065 2 2065 3 82 105
c73 94 195 277 210 315 4 13 -289 15 -2362 15 l-2367 0 28 -47z"/>
<path d="M780 814 c78 -80 271 -242 381 -319 l106 -75 1449 0 1449 0 80 54
c119 81 279 214 370 305 l80 81 -1980 0 -1979 0 44 -46z"/>
<path d="M1444 321 c8 -12 230 -111 350 -156 127 -47 370 -109 511 -129 557
-82 1140 8 1613 249 l87 44 -1283 0 c-734 1 -1281 -3 -1278 -8z"/>
</g>
</svg>
